<?xml version="1.0" standalone="no"?>
<!DOCTYPE svg PUBLIC "-//W3C//DTD SVG 20010904//EN"
 "http://www.w3.org/TR/2001/REC-SVG-20010904/DTD/svg10.dtd">
<svg version="1.0" xmlns="http://www.w3.org/2000/svg"
 width="512.000000pt" height="512.000000pt" viewBox="0 0 512.000000 512.000000"
 preserveAspectRatio="xMidYMid meet">
<metadata>
Created by potrace 1.11, written by Peter Selinger 2001-2013
</metadata>
<g transform="translate(0.000000,512.000000) scale(0.100000,-0.100000)"
fill="#000000" stroke="none">
<path d="M2399 4976 c-2 -2 -31 -7 -64 -10 -176 -19 -414 -105 -592 -213 -372
-224 -635 -600 -724 -1033 -20 -96 -24 -145 -24 -295 0 -99 3 -197 7 -218 6
-33 4 -39 -15 -46 -391 -152 -733 -500 -883 -898 -30 -80 -71 -226 -78 -283
-4 -25 -10 -72 -15 -105 -8 -59 -7 -331 2 -370 2 -11 8 -42 11 -70 16 -109 79
-301 137 -418 222 -443 624 -753 1099 -846 293 -58 573 -36 848 65 148 54 268
120 399 216 l53 39 32 -23 c18 -13 35 -26 38 -29 11 -14 153 -100 217 -133
121 -60 301 -122 413 -140 131 -21 183 -26 300 -26 96 1 121 2 219 15 68 8 69
9 167 34 556 143 995 591 1130 1156 39 161 51 404 28 570 -47 343 -201 652
-449 900 -135 135 -282 236 -457 316 -72 33 -96 48 -93 59 13 42 20 280 10
375 -12 128 -50 289 -95 410 -20 52 -112 235 -142 280 -136 206 -324 388 -523
508 -144 86 -363 168 -515 193 -25 4 -56 9 -70 12 -33 6 -365 13 -371 8z"/>
</g>
</svg>
